<?xml version="1.0" standalone="no"?>
<!DOCTYPE svg PUBLIC "-//W3C//DTD SVG 20010904//EN"
 "http://www.w3.org/TR/2001/REC-SVG-20010904/DTD/svg10.dtd">
<svg version="1.0" xmlns="http://www.w3.org/2000/svg"
 width="456.000000pt" height="456.000000pt" viewBox="0 0 456.000000 456.000000"
 preserveAspectRatio="xMidYMid meet">
<metadata>
Created by potrace 1.11, written by Peter Selinger 2001-2013
</metadata>
<g transform="translate(0.000000,456.000000) scale(0.100000,-0.100000)"
fill="#000000" stroke="none">
<path d="M1992 4335 c-345 -49 -678 -186 -956 -393 -119 -89 -284 -247 -368
-352 -33 -41 -65 -82 -73 -91 -34 -43 -128 -195 -163 -265 -242 -482 -295
-1002 -153 -1512 71 -256 222 -550 383 -743 272 -328 612 -558 994 -674 614
-187 1268 -87 1789 273 685 474 1018 1300 854 2120 -121 606 -524 1139 -1069
1417 -206 104 -411 174 -625 211 -121 22 -486 27 -613 9z m513 -296 c369 -44
717 -217 1013 -504 248 -240 412 -540 488 -895 34 -158 43 -426 20 -590 -73
-518 -346 -954 -776 -1242 -661 -441 -1541 -384 -2145 139 -121 105 -264 281
-364 448 -24 39 -47 77 -52 85 -44 73 -120 286 -152 430 -55 243 -46 599 20
830 117 409 332 722 669 975 110 83 285 177 424 228 269 100 554 132 855 96z"/>
<path d="M2292 3913 c-12 -10 -24 -35 -28 -55 -6 -37 -6 -38 25 -38 24 0 31 4
31 19 0 21 23 45 33 34 15 -14 5 -42 -43 -126 -27 -48 -50 -89 -50 -92 0 -3
34 -5 76 -5 l75 0 -3 28 c-2 21 -8 27 -25 26 -13 0 -23 0 -23 2 0 1 13 31 30
66 36 77 37 101 5 133 -29 30 -74 33 -103 8z"/>
<path d="M2130 3894 c0 -17 6 -28 20 -31 18 -5 20 -14 20 -109 l0 -104 30 0
30 0 0 135 0 135 -50 0 c-47 0 -50 -1 -50 -26z"/>
<path d="M1380 3686 c0 -15 7 -26 20 -29 18 -5 20 -14 20 -111 l0 -106 30 0
30 0 0 135 0 135 -50 0 c-46 0 -50 -2 -50 -24z"/>
<path d="M1540 3685 c0 -16 6 -25 15 -25 12 0 15 -16 15 -87 0 -113 6 -133 36
-133 l24 0 0 135 0 135 -45 0 c-41 0 -45 -2 -45 -25z"/>
<path d="M2950 3685 c0 -16 6 -25 15 -25 12 0 15 -19 15 -110 l0 -110 30 0 30
0 0 135 0 135 -45 0 c-41 0 -45 -2 -45 -25z"/>
<path d="M2236 3478 c-3 -29 -17 -280 -32 -558 -26 -501 -26 -505 -50 -530
-13 -14 -29 -43 -37 -63 -10 -32 -31 -51 -125 -115 -572 -394 -543 -372 -531
-393 6 -11 16 -22 23 -25 8 -3 168 72 357 167 l344 172 77 1 c74 1 78 2 113
36 64 62 68 157 10 220 -23 25 -24 34 -49 530 -15 278 -29 529 -32 558 -5 49
-7 52 -34 52 -27 0 -29 -3 -34 -52z m64 -1118 c20 0 50 -45 50 -76 0 -49 -30
-79 -80 -79 -32 0 -47 6 -61 24 -22 27 -24 78 -5 103 15 21 56 38 74 32 8 -2
18 -4 22 -4z"/>
<path d="M3507 3167 c-10 -6 -20 -29 -24 -50 -5 -36 -5 -37 25 -37 24 0 31 5
34 23 2 12 10 22 18 22 26 0 14 -47 -34 -128 -25 -43 -46 -82 -46 -87 0 -5 33
-8 73 -7 71 2 72 3 75 30 3 23 0 27 -22 27 -14 0 -26 2 -26 4 0 2 12 28 27 56
48 92 28 160 -47 160 -20 0 -44 -6 -53 -13z"/>
<path d="M867 3144 c-4 -4 -7 -18 -7 -31 0 -16 6 -23 20 -23 19 0 20 -7 20
-110 l0 -111 28 4 27 4 0 134 0 134 -40 3 c-23 2 -44 0 -48 -4z"/>
<path d="M1042 3143 c-26 -10 -42 -62 -42 -137 0 -66 3 -78 26 -105 19 -23 34
-31 57 -31 63 1 88 42 88 140 0 72 -18 123 -46 134 -19 7 -64 7 -83 -1z m63
-63 c11 -17 9 -130 -2 -141 -39 -39 -63 53 -37 139 4 14 30 16 39 2z"/>
<path d="M3711 2414 c-31 -39 -28 -64 8 -64 21 0 30 6 34 21 7 27 27 15 27
-17 0 -17 -5 -24 -20 -24 -15 0 -20 -7 -20 -29 0 -20 6 -30 20 -34 14 -3 20
-14 20 -31 0 -26 -22 -36 -35 -16 -3 6 -17 10 -31 10 -17 0 -24 -6 -24 -18 0
-52 97 -75 132 -32 22 28 23 78 2 102 -14 14 -14 21 -4 33 6 8 12 31 12 52 0
69 -79 100 -121 47z"/>
<path d="M715 2405 c-35 -34 -35 -96 0 -130 13 -14 31 -25 40 -25 19 0 19 -17
0 -50 -22 -38 -18 -50 14 -50 27 0 32 6 60 74 37 88 40 142 10 180 -28 36 -89
37 -124 1z m80 -65 c0 -28 -4 -35 -20 -35 -13 0 -21 8 -23 23 -5 34 5 54 25
50 13 -2 18 -13 18 -38z"/>
<path d="M927 1672 c-21 -23 -22 -75 -2 -92 13 -11 12 -15 -5 -37 -27 -35 -26
-84 3 -111 30 -29 89 -30 117 -2 26 26 26 80 1 111 -19 23 -19 24 0 48 24 30
24 42 -2 75 -25 32 -86 37 -112 8z m67 -49 c9 -22 -12 -43 -23 -24 -10 15 -4
41 9 41 4 0 11 -8 14 -17z m6 -129 c0 -28 -3 -35 -17 -32 -31 6 -29 68 2 68
11 0 15 -10 15 -36z"/>
<path d="M3518 1595 c-21 -47 -38 -97 -38 -110 0 -22 4 -25 40 -25 36 0 40 -2
40 -25 0 -21 5 -25 30 -25 25 0 30 4 30 25 0 14 5 25 10 25 6 0 10 11 10 25 0
14 -4 25 -10 25 -6 0 -10 35 -10 85 l0 85 -32 0 c-32 0 -35 -4 -70 -85z m42
-50 c0 -24 -5 -35 -15 -35 -18 0 -19 11 -3 45 15 33 18 32 18 -10z"/>
<path d="M2977 1153 c-3 -5 -8 -38 -12 -76 -6 -58 -5 -66 8 -61 27 10 57 -14
57 -46 0 -32 -25 -46 -61 -35 -18 6 -20 3 -17 -22 3 -25 7 -28 45 -31 60 -4
93 29 93 92 0 47 -15 71 -56 87 -35 13 -20 39 22 39 31 0 34 3 34 30 0 30 -1
30 -54 30 -30 0 -57 -3 -59 -7z"/>
<path d="M1470 1115 c0 -22 4 -25 36 -25 30 0 35 -3 29 -17 -4 -10 -22 -60
-41 -111 l-34 -93 33 3 c31 3 33 6 79 128 26 69 48 128 48 133 0 4 -34 7 -75
7 -73 0 -75 -1 -75 -25z"/>
<path d="M2225 868 c-16 -35 -31 -86 -33 -115 -4 -45 -1 -55 21 -77 58 -57
147 -18 147 64 0 46 -34 90 -70 90 l-20 0 20 40 c26 52 25 60 -9 60 -25 0 -31
-7 -56 -62z m70 -128 c0 -28 -4 -35 -20 -35 -13 0 -21 8 -23 23 -5 34 5 54 25
50 13 -2 18 -13 18 -38z"/>
</g>
</svg>
